<?xml version="1.0" encoding="UTF-8"?> <svg xmlns="http://www.w3.org/2000/svg" viewBox="0 0 150 150"> <defs> <style>.cls-1,.cls-3{fill:#fff;}.cls-2{fill:#fd7e15;}.cls-2,.cls-3{fill-rule:evenodd;}</style> </defs> <g id="Слой_2"> <g id="Слой_1-2"><path class="cls-2" d="M145.92,81.85c-5.27-6.4-12.15-4.12-14.51-2.82-4.37,2.41-5.27,10.57.57,12-2.37-3.93-.14-6.3,2.05-7.6,2-1.19,5.54-.76,7.36,3.15a9.51,9.51,0,0,1-5.55,13.1c-7.51,2.75-16.68-9.61-28.86-13.07a1.91,1.91,0,0,1-.38-3.49c6.14-3.47,15.29-5.18,20.31-9.85,6.35-5.9,6.41-15,1.31-20.45-3.84-4.12-10.71-5.57-15.87-.77-2,1.86-4.33,7-1.06,11.25.53-8.79,8-9.65,11.36-6.06,2.93,3.15,2.39,6.93-1.65,10.68-4.36,4-13.31,3.92-20.7,8.74A1.8,1.8,0,0,1,97.54,75a16.13,16.13,0,0,0-1.28-7.62c-2.06-5.1,11-10.8,11-36.37,0-17.13-14.65-31-32.73-31S41.83,13.88,41.83,31c0,25.57,13.08,31.27,11,36.37A16,16,0,0,0,51.57,75a1.8,1.8,0,0,1-2.77,1.67C41.42,71.85,32.47,72,28.1,67.93c-4-3.75-4.58-7.53-1.64-10.68,3.33-3.59,10.82-2.73,11.35,6.06,3.27-4.28.95-9.39-1.05-11.25-5.16-4.8-12-3.35-15.87.77-5.1,5.49-5.05,14.55,1.31,20.45,5,4.67,14.16,6.38,20.31,9.85a1.9,1.9,0,0,1-.39,3.49c-12.18,3.46-21.34,15.82-28.85,13.07a9.5,9.5,0,0,1-5.55-13.1c1.81-3.91,5.32-4.34,7.36-3.15s4.41,3.67,2,7.6c5.84-1.44,4.93-9.6.56-12A11.33,11.33,0,0,0,3.18,81.85c-3.73,4.52-6.49,18,5.58,23.84,16.25,7.83,26.11-9.5,38.31-10.18A1.4,1.4,0,0,1,48,98a26.32,26.32,0,0,0-3.81,4c-5.56,7.16-7,19.34-12.48,25.26-4.17,4.47-8.81,4.86-12.31,1.59-4-3.71-2.72-12.12,7.06-12.68-4.76-3.64-10.27-1-12.28,1.23-4.44,5-3.58,13.11,1,17.39,6.08,5.68,15.88,5.31,22.47-1.74,7.06-7.57,9.12-21,14.05-24.94l0,0a1.72,1.72,0,0,1,2.76,1.53c0,.41-.06.83-.08,1.27-.28,7.9,7.51,17.32,7.29,24.39-.17,5.34-2.58,8.14-6.76,8-4.74-.15-8.9-6.17-2.8-12.17-5.22.34-7.48,5.29-7.56,7.95-.22,6.83,5.22,10.94,10.69,11.11,7.26.23,13.66-6,13.92-14.42.28-9-5.09-17.86-4.14-23.31a12,12,0,0,1,3.84-7,8.66,8.66,0,0,1,11.31,0,12,12,0,0,1,3.84,7c1,5.45-4.43,14.28-4.15,23.31.27,8.41,6.67,14.65,13.93,14.42,5.46-.17,10.9-4.28,10.69-11.11-.08-2.66-2.34-7.61-7.56-7.95,6.09,6,1.94,12-2.81,12.17-4.18.13-6.59-2.67-6.76-8-.22-7.07,7.58-16.49,7.29-24.39,0-.44,0-.86-.07-1.27a1.71,1.71,0,0,1,2.75-1.53l0,0c4.93,4,7,17.37,14,24.94,6.58,7,16.39,7.42,22.47,1.74,4.58-4.28,5.44-12.37,1-17.39-2-2.28-7.53-4.87-12.28-1.23,9.77.56,11,9,7.06,12.68-3.5,3.27-8.14,2.88-12.31-1.59-5.54-5.92-6.93-18.1-12.48-25.26a26.32,26.32,0,0,0-3.81-4,1.4,1.4,0,0,1,.94-2.49c12.2.68,22.06,18,38.31,10.18C152.41,99.88,149.65,86.37,145.92,81.85Z"></path> <path class="cls-3" d="M91,72.88a11,11,0,0,0-4.7,5.93,1,1,0,0,0,.82,1.32c5.37.46,5.57-4.15,5.34-6.51A1,1,0,0,0,91,72.88Z"></path> <path class="cls-3" d="M58.13,72.88a11.06,11.06,0,0,1,4.7,5.93A1,1,0,0,1,62,80.13c-5.36.46-5.57-4.15-5.33-6.51A1,1,0,0,1,58.13,72.88Z"></path> <path class="cls-1" d="M82.72,10.4C97.2,15,103.78,32.65,97,46c0-2.57.17-5.2,0-7.73-.26-11-5.92-20.75-14.2-27.85Z"></path> </g> </g> </svg>